<?xml version="1.0" standalone="no"?>
<!DOCTYPE svg PUBLIC "-//W3C//DTD SVG 20010904//EN"
 "http://www.w3.org/TR/2001/REC-SVG-20010904/DTD/svg10.dtd">
<svg version="1.0" xmlns="http://www.w3.org/2000/svg"
 width="512.000000pt" height="512.000000pt" viewBox="0 0 512.000000 512.000000"
 preserveAspectRatio="xMidYMid meet">

<g transform="translate(0.000000,512.000000) scale(0.100000,-0.100000)"
fill="#000000" stroke="none">
<path d="M78 5099 c-23 -12 -46 -35 -58 -59 -19 -38 -20 -58 -20 -492 0 -422
1 -456 19 -488 29 -55 64 -75 131 -75 67 0 102 20 131 75 18 32 19 63 19 397
l0 363 363 0 c334 0 365 1 397 19 55 29 75 64 75 131 0 67 -20 102 -75 131
-32 18 -65 19 -490 19 -433 -1 -457 -2 -492 -21z"/>
<path d="M4060 5101 c-55 -29 -75 -64 -75 -131 0 -67 20 -102 75 -131 32 -18
63 -19 397 -19 l363 0 0 -363 c0 -334 1 -365 19 -397 29 -55 64 -75 131 -75
67 0 102 20 131 75 18 32 19 66 19 488 0 434 -1 454 -20 492 -13 26 -34 47
-60 60 -38 19 -58 20 -492 20 -422 0 -456 -1 -488 -19z"/>
<path d="M970 4227 c-50 -25 -50 -26 -48 -560 l3 -499 28 -24 c28 -24 28 -24
278 -24 160 0 258 4 271 11 39 21 48 67 48 257 l0 179 26 24 26 24 278 3 c307
3 341 -2 360 -53 14 -36 14 -2374 0 -2410 -16 -43 -63 -55 -213 -55 -190 0
-177 22 -177 -302 0 -141 3 -264 6 -273 17 -44 26 -45 704 -45 678 0 687 1
704 45 3 9 6 132 6 274 0 323 13 301 -178 301 -149 0 -196 12 -212 55 -14 36
-14 2374 0 2410 19 51 53 56 360 53 360 -4 327 21 332 -250 l3 -200 28 -24 28
-24 254 0 254 0 28 24 28 24 0 511 0 510 -23 23 -23 23 -1577 2 c-1252 2
-1582 0 -1602 -10z"/>
<path d="M84 1126 c-17 -7 -42 -29 -55 -47 l-24 -34 -3 -462 c-2 -449 -2 -464
18 -503 13 -26 34 -47 60 -60 38 -19 58 -20 492 -20 422 0 456 1 488 19 55 29
75 64 75 131 0 67 -20 102 -75 131 -32 18 -63 19 -397 19 l-363 0 0 363 c0
334 -1 365 -19 397 -10 19 -30 43 -44 54 -33 24 -112 31 -153 12z"/>
<path d="M4904 1126 c-17 -7 -42 -29 -55 -47 l-24 -34 -3 -372 -3 -373 -362 0
c-334 0 -365 -1 -397 -19 -55 -29 -75 -64 -75 -131 0 -67 20 -102 75 -131 32
-18 66 -19 488 -19 434 0 454 1 492 20 26 13 47 34 60 60 19 38 20 58 20 492
0 422 -1 456 -19 488 -10 19 -30 43 -44 54 -33 24 -112 31 -153 12z"/>
</g>
</svg>
